<svg width="32" height="22" viewBox="0 0 32 22" fill="none" xmlns="http://www.w3.org/2000/svg">
<path d="M0 3C0 1.34315 1.34315 0 3 0H29C30.6569 0 32 1.34315 32 3V12V19C32 20.6569 30.6569 22 29 22H3C1.34315 22 0 20.6569 0 19V12V3Z" fill="#AFC1D1"/>
<path d="M7.43324 17V5.36364H9.89347V14.9716H14.8821V17H7.43324ZM16.4432 17V15.2273L20.5852 11.392C20.9375 11.0511 21.233 10.7443 21.4716 10.4716C21.714 10.1989 21.8977 9.93182 22.0227 9.67045C22.1477 9.4053 22.2102 9.11932 22.2102 8.8125C22.2102 8.47159 22.1326 8.17803 21.9773 7.93182C21.822 7.68182 21.6098 7.49053 21.3409 7.35795C21.072 7.22159 20.767 7.15341 20.4261 7.15341C20.0701 7.15341 19.7595 7.22538 19.4943 7.36932C19.2292 7.51326 19.0246 7.7197 18.8807 7.98864C18.7367 8.25758 18.6648 8.57765 18.6648 8.94886H16.3295C16.3295 8.1875 16.5019 7.52652 16.8466 6.96591C17.1913 6.4053 17.6742 5.97159 18.2955 5.66477C18.9167 5.35795 19.6326 5.20455 20.4432 5.20455C21.2765 5.20455 22.0019 5.35227 22.6193 5.64773C23.2405 5.93939 23.7235 6.3447 24.0682 6.86364C24.4129 7.38258 24.5852 7.97727 24.5852 8.64773C24.5852 9.08712 24.4981 9.52083 24.3239 9.94886C24.1534 10.3769 23.8485 10.8523 23.4091 11.375C22.9697 11.8939 22.3504 12.517 21.5511 13.2443L19.8523 14.9091V14.9886H24.7386V17H16.4432Z" fill="#1C1F2A"/>
</svg>
