<svg width="34" height="28" viewBox="0 0 34 28" fill="none" xmlns="http://www.w3.org/2000/svg">
<rect x="13" y="12" width="8" height="16" rx="4" fill="#AFC1D1"/>
<path d="M6.14242 5.09091C6.14242 5.7178 6.02499 6.25473 5.79014 6.7017C5.55719 7.14678 5.23901 7.48769 4.8356 7.72443C4.43408 7.96117 3.97859 8.07955 3.46912 8.07955C2.95965 8.07955 2.50321 7.96117 2.0998 7.72443C1.69829 7.4858 1.3801 7.14394 1.14526 6.69886C0.912302 6.25189 0.795824 5.71591 0.795824 5.09091C0.795824 4.46402 0.912302 3.92803 1.14526 3.48295C1.3801 3.03598 1.69829 2.69413 2.0998 2.45739C2.50321 2.22064 2.95965 2.10227 3.46912 2.10227C3.97859 2.10227 4.43408 2.22064 4.8356 2.45739C5.23901 2.69413 5.55719 3.03598 5.79014 3.48295C6.02499 3.92803 6.14242 4.46402 6.14242 5.09091ZM5.08276 5.09091C5.08276 4.64962 5.01363 4.27746 4.87537 3.97443C4.73901 3.66951 4.54961 3.43939 4.30719 3.28409C4.06476 3.12689 3.78541 3.0483 3.46912 3.0483C3.15283 3.0483 2.87348 3.12689 2.63105 3.28409C2.38863 3.43939 2.19829 3.66951 2.06003 3.97443C1.92367 4.27746 1.85548 4.64962 1.85548 5.09091C1.85548 5.5322 1.92367 5.9053 2.06003 6.21023C2.19829 6.51326 2.38863 6.74337 2.63105 6.90057C2.87348 7.05587 3.15283 7.13352 3.46912 7.13352C3.78541 7.13352 4.06476 7.05587 4.30719 6.90057C4.54961 6.74337 4.73901 6.51326 4.87537 6.21023C5.01363 5.9053 5.08276 5.5322 5.08276 5.09091ZM6.65886 8V2.18182H8.84068C9.28765 2.18182 9.66265 2.26515 9.96568 2.43182C10.2706 2.59848 10.5007 2.82765 10.656 3.11932C10.8132 3.40909 10.8918 3.73864 10.8918 4.10795C10.8918 4.48106 10.8132 4.8125 10.656 5.10227C10.4988 5.39205 10.2668 5.62027 9.96 5.78693C9.65318 5.9517 9.27534 6.03409 8.82648 6.03409H7.38046V5.16761H8.68443C8.9458 5.16761 9.15981 5.12216 9.32648 5.03125C9.49314 4.94034 9.61625 4.81534 9.6958 4.65625C9.77724 4.49716 9.81796 4.31439 9.81796 4.10795C9.81796 3.90152 9.77724 3.7197 9.6958 3.5625C9.61625 3.4053 9.4922 3.28314 9.32364 3.19602C9.15697 3.10701 8.94201 3.0625 8.67875 3.0625H7.71284V8H6.65886ZM11.0716 3.06534V2.18182H15.7137V3.06534H13.9154V8H12.8699V3.06534H11.0716ZM17.1825 2.18182V8H16.1286V2.18182H17.1825ZM23.0427 5.09091C23.0427 5.7178 22.9253 6.25473 22.6905 6.7017C22.4575 7.14678 22.1393 7.48769 21.7359 7.72443C21.3344 7.96117 20.8789 8.07955 20.3694 8.07955C19.86 8.07955 19.4035 7.96117 19.0001 7.72443C18.5986 7.4858 18.2804 7.14394 18.0456 6.69886C17.8126 6.25189 17.6961 5.71591 17.6961 5.09091C17.6961 4.46402 17.8126 3.92803 18.0456 3.48295C18.2804 3.03598 18.5986 2.69413 19.0001 2.45739C19.4035 2.22064 19.86 2.10227 20.3694 2.10227C20.8789 2.10227 21.3344 2.22064 21.7359 2.45739C22.1393 2.69413 22.4575 3.03598 22.6905 3.48295C22.9253 3.92803 23.0427 4.46402 23.0427 5.09091ZM21.9831 5.09091C21.9831 4.64962 21.9139 4.27746 21.7757 3.97443C21.6393 3.66951 21.4499 3.43939 21.2075 3.28409C20.9651 3.12689 20.6857 3.0483 20.3694 3.0483C20.0531 3.0483 19.7738 3.12689 19.5314 3.28409C19.2889 3.43939 19.0986 3.66951 18.9603 3.97443C18.824 4.27746 18.7558 4.64962 18.7558 5.09091C18.7558 5.5322 18.824 5.9053 18.9603 6.21023C19.0986 6.51326 19.2889 6.74337 19.5314 6.90057C19.7738 7.05587 20.0531 7.13352 20.3694 7.13352C20.6857 7.13352 20.9651 7.05587 21.2075 6.90057C21.4499 6.74337 21.6393 6.51326 21.7757 6.21023C21.9139 5.9053 21.9831 5.5322 21.9831 5.09091ZM28.3404 2.18182V8H27.4029L24.6614 4.03693H24.6132V8H23.5592V2.18182H24.5024L27.241 6.14773H27.2921V2.18182H28.3404ZM32.1708 3.78125C32.1443 3.53314 32.0325 3.33996 31.8356 3.2017C31.6405 3.06345 31.3867 2.99432 31.0742 2.99432C30.8545 2.99432 30.6661 3.02746 30.5089 3.09375C30.3517 3.16004 30.2314 3.25 30.1481 3.36364C30.0647 3.47727 30.0221 3.60701 30.0202 3.75284C30.0202 3.87405 30.0477 3.97917 30.1026 4.06818C30.1594 4.1572 30.2361 4.23295 30.3327 4.29545C30.4293 4.35606 30.5363 4.4072 30.6538 4.44886C30.7712 4.49053 30.8895 4.52557 31.0089 4.55398L31.5543 4.69034C31.774 4.74148 31.9852 4.81061 32.1878 4.89773C32.3924 4.98485 32.5752 5.0947 32.7361 5.22727C32.899 5.35985 33.0278 5.51989 33.1225 5.70739C33.2172 5.89489 33.2645 6.11458 33.2645 6.36648C33.2645 6.70739 33.1774 7.00758 33.0032 7.26705C32.8289 7.52462 32.577 7.72633 32.2475 7.87216C31.9198 8.0161 31.5231 8.08807 31.0572 8.08807C30.6045 8.08807 30.2115 8.01799 29.8782 7.87784C29.5467 7.73769 29.2873 7.53314 29.0998 7.2642C28.9142 6.99527 28.8138 6.66761 28.7986 6.28125H29.8356C29.8507 6.4839 29.9132 6.65246 30.0231 6.78693C30.1329 6.9214 30.2759 7.02178 30.452 7.08807C30.6301 7.15436 30.8289 7.1875 31.0486 7.1875C31.2778 7.1875 31.4786 7.15341 31.6509 7.08523C31.8252 7.01515 31.9615 6.91856 32.06 6.79545C32.1585 6.67045 32.2087 6.52462 32.2106 6.35795C32.2087 6.20644 32.1642 6.08144 32.077 5.98295C31.9899 5.88258 31.8678 5.79924 31.7106 5.73295C31.5553 5.66477 31.3734 5.60417 31.1651 5.55114L30.5032 5.38068C30.024 5.25758 29.6452 5.07102 29.3668 4.82102C29.0903 4.56913 28.952 4.23485 28.952 3.81818C28.952 3.47538 29.0448 3.17519 29.2305 2.91761C29.418 2.66004 29.6727 2.46023 29.9947 2.31818C30.3166 2.17424 30.6812 2.10227 31.0884 2.10227C31.5013 2.10227 31.863 2.17424 32.1736 2.31818C32.4861 2.46023 32.7314 2.65814 32.9094 2.91193C33.0875 3.16383 33.1793 3.4536 33.185 3.78125H32.1708Z" fill="#AFC1D1"/>
</svg>
