<svg width="32" height="22" viewBox="0 0 32 22" fill="none" xmlns="http://www.w3.org/2000/svg">
<path d="M0 2C0 0.895431 0.895431 0 2 0H30C31.1046 0 32 0.895431 32 2V12V12C32 17.5228 27.5228 22 22 22H10C4.47715 22 0 17.5228 0 12V12V2Z" fill="#AFC1D1"/>
<path d="M7.8473 16V4.36364H12.4382C13.317 4.36364 14.067 4.52083 14.6882 4.83523C15.3132 5.14583 15.7886 5.58712 16.1143 6.15909C16.4439 6.72727 16.6087 7.39583 16.6087 8.16477C16.6087 8.9375 16.442 9.60227 16.1087 10.1591C15.7753 10.7121 15.2924 11.1364 14.6598 11.4318C14.031 11.7273 13.2696 11.875 12.3757 11.875H9.30185V9.89773H11.978C12.4477 9.89773 12.8378 9.83333 13.1484 9.70455C13.459 9.57576 13.6901 9.38258 13.8416 9.125C13.9969 8.86742 14.0746 8.54735 14.0746 8.16477C14.0746 7.77841 13.9969 7.45265 13.8416 7.1875C13.6901 6.92235 13.4571 6.72159 13.1428 6.58523C12.8321 6.44508 12.4401 6.375 11.9666 6.375H10.3075V16H7.8473ZM14.1314 10.7045L17.0234 16H14.3075L11.478 10.7045H14.1314ZM23.3416 4.36364V16H20.8814V6.69886H20.8132L18.1484 8.36932V6.1875L21.0291 4.36364H23.3416Z" fill="#1C1F2A"/>
</svg>
