<svg width="32" height="22" viewBox="0 0 32 22" fill="none" xmlns="http://www.w3.org/2000/svg">
<path d="M0 3C0 1.34315 1.34315 0 3 0H29C30.6569 0 32 1.34315 32 3V12V19C32 20.6569 30.6569 22 29 22H3C1.34315 22 0 20.6569 0 19V12V3Z" fill="#AFC1D1"/>
<path d="M7.2223 17V5.36364H11.8132C12.692 5.36364 13.442 5.52083 14.0632 5.83523C14.6882 6.14583 15.1636 6.58712 15.4893 7.15909C15.8189 7.72727 15.9837 8.39583 15.9837 9.16477C15.9837 9.9375 15.817 10.6023 15.4837 11.1591C15.1503 11.7121 14.6674 12.1364 14.0348 12.4318C13.406 12.7273 12.6446 12.875 11.7507 12.875H8.67685V10.8977H11.353C11.8227 10.8977 12.2128 10.8333 12.5234 10.7045C12.834 10.5758 13.0651 10.3826 13.2166 10.125C13.3719 9.86742 13.4496 9.54735 13.4496 9.16477C13.4496 8.77841 13.3719 8.45265 13.2166 8.1875C13.0651 7.92235 12.8321 7.72159 12.5178 7.58523C12.2071 7.44508 11.8151 7.375 11.3416 7.375H9.68253V17H7.2223ZM13.5064 11.7045L16.3984 17H13.6825L10.853 11.7045H13.5064ZM17.6541 17V15.2273L21.7962 11.392C22.1484 11.0511 22.4439 10.7443 22.6825 10.4716C22.925 10.1989 23.1087 9.93182 23.2337 9.67045C23.3587 9.4053 23.4212 9.11932 23.4212 8.8125C23.4212 8.47159 23.3435 8.17803 23.1882 7.93182C23.0329 7.68182 22.8208 7.49053 22.5518 7.35795C22.2829 7.22159 21.978 7.15341 21.6371 7.15341C21.281 7.15341 20.9704 7.22538 20.7053 7.36932C20.4401 7.51326 20.2356 7.7197 20.0916 7.98864C19.9477 8.25758 19.8757 8.57765 19.8757 8.94886H17.5405C17.5405 8.1875 17.7128 7.52652 18.0575 6.96591C18.4022 6.4053 18.8852 5.97159 19.5064 5.66477C20.1276 5.35795 20.8435 5.20455 21.6541 5.20455C22.4875 5.20455 23.2128 5.35227 23.8303 5.64773C24.4515 5.93939 24.9344 6.3447 25.2791 6.86364C25.6238 7.38258 25.7962 7.97727 25.7962 8.64773C25.7962 9.08712 25.709 9.52083 25.5348 9.94886C25.3643 10.3769 25.0594 10.8523 24.62 11.375C24.1806 11.8939 23.5613 12.517 22.7621 13.2443L21.0632 14.9091V14.9886H25.9496V17H17.6541Z" fill="#1C1F2A"/>
</svg>
